<?xml version="1.0" encoding="UTF-8" standalone="no"?>
<svg width="40px" height="75px" viewBox="0 0 40 75" version="1.1" xmlns="http://www.w3.org/2000/svg" xmlns:xlink="http://www.w3.org/1999/xlink" xmlns:sketch="http://www.bohemiancoding.com/sketch/ns">
    <!-- Generator: Sketch 3.4.2 (15857) - http://www.bohemiancoding.com/sketch -->
    <title>banner-development</title>
    <desc>Created with Sketch.</desc>
    <defs></defs>
    <g id="Page-1" stroke="none" stroke-width="1" fill="none" fill-rule="evenodd" sketch:type="MSPage">
        <g id="banner-development" sketch:type="MSArtboardGroup">
            <rect id="Rectangle-62" fill="#05C14F" sketch:type="MSShapeGroup" x="0" y="0" width="40" height="36"></rect>
            <path d="M0,36 L40,36 L40,62 L20,74 L0,62 L0,36 L0,36 Z" id="path-1" fill="#10A64B" sketch:type="MSShapeGroup"></path>
            <g id="Group" sketch:type="MSLayerGroup" transform="translate(8.000000, 6.000000)" stroke="#FFFFFF" stroke-width="2" stroke-linecap="round" stroke-linejoin="round">
                <path d="M9,25 L0,25 L0,18 L9,18 L9,25 L9,25 Z" id="Stroke-91" sketch:type="MSShapeGroup"></path>
                <path d="M9,4 L18,4 L18,7" id="Stroke-93" sketch:type="MSShapeGroup"></path>
                <path d="M10,22 L18,22 L18,18" id="Stroke-95" sketch:type="MSShapeGroup"></path>
                <path d="M9,4.49999832 C9,6.98549685 6.98549685,9 4.49999832,9 C2.01449979,9 0,6.98549685 0,4.49999832 C0,2.01449979 2.01449979,0 4.49999832,0 C6.98549685,0 9,2.01449979 9,4.49999832 L9,4.49999832 L9,4.49999832 Z" id="Stroke-97" sketch:type="MSShapeGroup"></path>
                <path d="M17.9999983,7 L12,12.4999984 L17.9999983,18 L24,12.4999984 L17.9999983,7 L17.9999983,7 Z" id="Stroke-99" sketch:type="MSShapeGroup"></path>
            </g>
        </g>
    </g>
</svg>