<?xml version="1.0" encoding="UTF-8" standalone="no"?>
<svg width="40px" height="75px" viewBox="0 0 40 75" version="1.1" xmlns="http://www.w3.org/2000/svg" xmlns:xlink="http://www.w3.org/1999/xlink" xmlns:sketch="http://www.bohemiancoding.com/sketch/ns">
    <!-- Generator: Sketch 3.4.2 (15857) - http://www.bohemiancoding.com/sketch -->
    <title>banner-design</title>
    <desc>Created with Sketch.</desc>
    <defs></defs>
    <g id="Page-1" stroke="none" stroke-width="1" fill="none" fill-rule="evenodd" sketch:type="MSPage">
        <g id="banner-design" sketch:type="MSArtboardGroup">
            <rect id="Rectangle-62" fill="#21B2F1" sketch:type="MSShapeGroup" x="0" y="0" width="40" height="36"></rect>
            <path d="M0,36 L40,36 L40,62 L20,74 L0,62 L0,36 L0,36 Z" id="path-1" fill="#1A8EC0" sketch:type="MSShapeGroup"></path>
            <g id="Group" sketch:type="MSLayerGroup" transform="translate(7.000000, 5.000000)" stroke="#FFFFFF" stroke-width="2" stroke-linecap="round" stroke-linejoin="round">
                <path d="M8.42455133,13.2837821 L19.9808818,1.38852361 C21.218041,0.11013067 23.222925,0.11013067 24.4600843,1.38852361 C25.6972354,2.66691729 25.6972354,4.73863581 24.4600843,6.0170295 L12.9037506,17.9122914 L8.42455133,13.2837821 Z" id="Stroke-79" sketch:type="MSShapeGroup"></path>
                <path d="M8.12396143,18.3694062 C6.76407638,16.9641925 4.57016485,16.9540099 3.22371767,18.3453379 C2.36371121,19.2340112 2.24814815,20.3374465 2.25800221,21.2603707 C2.26785626,22.1721868 1.63718524,23.0053178 0.0954451613,23.0321629 C2.26069026,25.2686564 6.03127935,25.619497 8.14725336,23.4329914 C9.5734336,21.9592752 9.36290408,19.6496511 8.12396143,18.3694062 L8.12396143,18.3694062 L8.12396143,18.3694062 Z" id="Stroke-81" sketch:type="MSShapeGroup"></path>
                <path d="M9.7359106,2.77707554 L7.04839154,5.55417858" id="Stroke-83" sketch:type="MSShapeGroup"></path>
                <path d="M22.2776227,15.736928 L19.5901036,18.5140311" id="Stroke-85" sketch:type="MSShapeGroup"></path>
                <path d="M15.2100384,21.3934726 C15.550995,21.7457937 15.9920438,22.2015438 16.445036,22.669636 C17.5351035,23.7960374 18.694318,24.9938965 18.694318,24.9938965 L24.9651934,18.5139836 C24.9651934,18.5139836 21.1540593,14.2999481 20.9802015,14.1130724" id="Stroke-87" sketch:type="MSShapeGroup"></path>
                <path d="M11.3650125,4.44904364 L7.04837299,0 L0.777495174,6.47990791 C0.777495174,6.47990791 2.17028433,7.91912421 4.16099763,9.97619378" id="Stroke-89" sketch:type="MSShapeGroup"></path>
            </g>
        </g>
    </g>
</svg>