<?xml version="1.0" encoding="UTF-8" standalone="no"?>
<svg width="40px" height="74px" viewBox="0 0 40 74" version="1.1" xmlns="http://www.w3.org/2000/svg" xmlns:xlink="http://www.w3.org/1999/xlink" xmlns:sketch="http://www.bohemiancoding.com/sketch/ns">
    <!-- Generator: Sketch 3.3.3 (12081) - http://www.bohemiancoding.com/sketch -->
    <title>design challenge</title>
    <desc>Created with Sketch.</desc>
    <defs>
        <path id="path-1" d="M0,36 L40,36 L40,62 L20,74 L0,62 L0,36 Z"></path>
    </defs>
    <g id="Page-1" stroke="none" stroke-width="1" fill="none" fill-rule="evenodd" sketch:type="MSPage">
        <g id="design-challenge" sketch:type="MSLayerGroup">
            <rect id="Rectangle-62" fill="#21B2F1" sketch:type="MSShapeGroup" x="0" y="0" width="40" height="36"></rect>
            <g id="Group" transform="translate(9.000000, 7.000000)" stroke="#F6F6F6" stroke-width="1.8" sketch:type="MSShapeGroup" stroke-linecap="round" stroke-linejoin="round">
                <path d="M2.2,6.6 L6.6,2.2" id="Stroke-2162"></path>
                <path d="M20.9,16.5 L16.5,20.9" id="Stroke-2163"></path>
                <path d="M11.55,15.95 L16.5,20.9 L22,22 L20.9,16.5 L15.95,11.55" id="Stroke-2164"></path>
                <path d="M10.45,6.05 L4.4,0 L0,4.4 L6.05,10.45" id="Stroke-2165"></path>
                <path d="M5.5,22 L0,16.5 L16.5,0 L22,5.5 L5.5,22 L5.5,22 Z" id="Stroke-2176"></path>
                <path d="M9.9,6.6 L11,7.7" id="Stroke-2177"></path>
                <path d="M13.2,3.3 L15.4,5.5" id="Stroke-2178"></path>
                <path d="M6.6,9.9 L8.8,12.1" id="Stroke-2179"></path>
                <path d="M3.3,13.2 L4.4,14.3" id="Stroke-2180"></path>
            </g>
            <g id="Rectangle-66">
                <use fill="#21B2F1" sketch:type="MSShapeGroup" xlink:href="#path-1"></use>
                <use fill-opacity="0.200000018" fill="#3D3D3D" xlink:href="#path-1"></use>
            </g>
        </g>
    </g>
</svg>