<?xml version="1.0" encoding="UTF-8" standalone="no"?>
<svg width="40px" height="74px" viewBox="0 0 40 74" version="1.1" xmlns="http://www.w3.org/2000/svg" xmlns:xlink="http://www.w3.org/1999/xlink" xmlns:sketch="http://www.bohemiancoding.com/sketch/ns">
    <!-- Generator: Sketch 3.3.3 (12081) - http://www.bohemiancoding.com/sketch -->
    <title>competitive develop</title>
    <desc>Created with Sketch.</desc>
    <defs>
        <path id="path-1" d="M0,36 L40,36 L40,62 L20,74 L0,62 L0,36 Z"></path>
    </defs>
    <g id="Page-1" stroke="none" stroke-width="1" fill="none" fill-rule="evenodd" sketch:type="MSPage">
        <g id="competitive-develop" sketch:type="MSLayerGroup">
            <rect id="Rectangle-62" fill="#7D939E" sketch:type="MSShapeGroup" x="0" y="0" width="40" height="36"></rect>
            <g id="Group" transform="translate(8.000000, 6.000000)" stroke="#F6F6F6" stroke-width="1.8" sketch:type="MSShapeGroup" stroke-linecap="round" stroke-linejoin="round">
                <path d="M15.5550556,2.28571429 L24.4445,2.28571429 L24.4445,22.8571429 L16.6667222,24 L7.77783333,20.5714286 L5.55555557e-05,22.8571429 L5.55555557e-05,2.28571429 L8.8895,2.28571429" id="Stroke-1696"></path>
                <path d="M15.5555556,4.57142857 L8.88888889,4.57142857 L8.88888889,0 L15.5555556,0 L15.5555556,4.57142857 Z" id="Stroke-1697"></path>
                <path d="M7.77777778,10.2857143 L5.55555556,12.5714286 L7.77777778,14.8571429" id="Stroke-1698"></path>
                <path d="M16.6666667,10.2857143 L18.8888889,12.5714286 L16.6666667,14.8571429" id="Stroke-1699"></path>
                <path d="M11.1111111,17.1428571 L13.3333333,8" id="Stroke-1700"></path>
            </g>
            <g id="Rectangle-66">
                <use fill="#7D939E" sketch:type="MSShapeGroup" xlink:href="#path-1"></use>
                <use fill-opacity="0.200000018" fill="#3D3D3D" xlink:href="#path-1"></use>
            </g>
        </g>
    </g>
</svg>