<?xml version="1.0" encoding="UTF-8" standalone="no"?>
<svg width="40px" height="74px" viewBox="0 0 40 74" version="1.1" xmlns="http://www.w3.org/2000/svg" xmlns:xlink="http://www.w3.org/1999/xlink" xmlns:sketch="http://www.bohemiancoding.com/sketch/ns">
    <!-- Generator: Sketch 3.3.3 (12081) - http://www.bohemiancoding.com/sketch -->
    <title>develop challenge</title>
    <desc>Created with Sketch.</desc>
    <defs>
        <path id="path-1" d="M0,36 L40,36 L40,62 L20,74 L0,62 L0,36 Z"></path>
    </defs>
    <g id="Page-1" stroke="none" stroke-width="1" fill="none" fill-rule="evenodd" sketch:type="MSPage">
        <g id="develop-challenge" sketch:type="MSLayerGroup">
            <rect id="Rectangle-62" fill="#05C14F" sketch:type="MSShapeGroup" x="0" y="0" width="40" height="36"></rect>
            <g id="Group" transform="translate(9.000000, 7.000000)" stroke="#F6F6F6" stroke-width="1.8" sketch:type="MSShapeGroup" stroke-linecap="round" stroke-linejoin="round">
                <path d="M9.81544773,15.3486826 L15.0043568,20.5483348 C16.3221068,21.868813 18.4588568,21.868813 19.7770841,20.5483348 L19.7770841,20.5483348 C21.0948341,19.2273783 21.0948341,17.0862043 19.7770841,15.7657261 L15.0019705,10.9807261" id="Stroke-5470"></path>
                <path d="M8.39346136,9.14114348 L5.28498409,6.02623043" id="Stroke-5471"></path>
                <path d="M20.4746182,4.10056087 L17.6362773,6.94477826 L14.2614818,3.56299565 L17.0998227,0.718778261 C16.45455,0.5093 15.7563,0.417952174 15.0275045,0.481082609 C12.3323455,0.714952174 10.1865273,3.10099565 10.2323455,5.81177826 C10.2414136,6.33882174 10.3287545,6.84625652 10.4814818,7.32499565 L1.30686818,15.4406043 C-0.0638590909,16.6534739 -0.129722727,18.7740826 1.16320909,20.0701696 C2.45661818,21.3657783 4.57284545,21.2997783 5.78320909,19.9257348 L13.88205,10.7326043 C14.6972318,10.9932565 15.5964136,11.0649957 16.5333,10.8779957 C18.4271182,10.5001696 20.0016409,9.05582174 20.5252091,7.19347391 C20.8340045,6.09634348 20.7791182,5.04225652 20.4746182,4.10056087 L20.4746182,4.10056087 Z" id="Stroke-5472"></path>
                <path d="M3.26020227,6.70273043 L5.28527045,6.02646957 L5.96013409,3.9972087 L3.26020227,1.29168696 L0.560270455,3.9972087 L3.26020227,6.70273043 L3.26020227,6.70273043 Z" id="Stroke-5473"></path>
                <path d="M15.0043091,15.7656304 L16.9134,17.6786739" id="Stroke-5474"></path>
            </g>
            <g id="Rectangle-66">
                <use fill="#05C14F" sketch:type="MSShapeGroup" xlink:href="#path-1"></use>
                <use fill-opacity="0.200000018" fill="#3D3D3D" xlink:href="#path-1"></use>
            </g>
        </g>
    </g>
</svg>