<?xml version="1.0" encoding="UTF-8" standalone="no"?>
<svg width="40px" height="74px" viewBox="0 0 40 74" version="1.1" xmlns="http://www.w3.org/2000/svg" xmlns:xlink="http://www.w3.org/1999/xlink" xmlns:sketch="http://www.bohemiancoding.com/sketch/ns">
    <!-- Generator: Sketch 3.3.3 (12081) - http://www.bohemiancoding.com/sketch -->
    <title>data science challenge</title>
    <desc>Created with Sketch.</desc>
    <defs>
        <path id="path-1" d="M0,36 L40,36 L40,62 L20,74 L0,62 L0,36 Z"></path>
    </defs>
    <g id="Page-1" stroke="none" stroke-width="1" fill="none" fill-rule="evenodd" sketch:type="MSPage">
        <g id="data-science-challenge" sketch:type="MSLayerGroup">
            <rect id="Rectangle-62" fill="#FC9A00" sketch:type="MSShapeGroup" x="0" y="0" width="40" height="36"></rect>
            <g id="Group" transform="translate(8.000000, 6.000000)" stroke-linecap="round" stroke-width="1.8" stroke="#F6F6F6" sketch:type="MSShapeGroup" stroke-linejoin="round">
                <g>
                    <path d="M6.73170732,2.28571429 C6.73170732,1.02342857 7.73641463,0 8.97560976,0 C10.2148049,0 11.2195122,1.02342857 11.2195122,2.28571429 C11.2195122,3.548 10.2148049,4.57142857 8.97560976,4.57142857 C7.73641463,4.57142857 6.73170732,3.548 6.73170732,2.28571429 L6.73170732,2.28571429 Z" id="Stroke-1045"></path>
                    <path d="M18.5121951,6.85714286 C18.5121951,5.59485714 19.5169024,4.57142857 20.7560976,4.57142857 C21.9952927,4.57142857 23,5.59485714 23,6.85714286 C23,8.11942857 21.9952927,9.14285714 20.7560976,9.14285714 C19.5169024,9.14285714 18.5121951,8.11942857 18.5121951,6.85714286 L18.5121951,6.85714286 Z" id="Stroke-1045"></path>
                    <path d="M0,14.5718857 C0,13.3096 1.00470732,12.2861714 2.24390244,12.2861714 C3.48309756,12.2861714 4.48780488,13.3096 4.48780488,14.5718857 C4.48780488,15.8341714 3.48309756,16.8576 2.24390244,16.8576 C1.00470732,16.8576 0,15.8341714 0,14.5718857 L0,14.5718857 Z" id="Stroke-1045"></path>
                    <path d="M9.53630488,21.4290286 C9.53630488,20.1667429 10.5410122,19.1433143 11.7802073,19.1433143 C13.0194024,19.1433143 14.0241098,20.1667429 14.0241098,21.4290286 C14.0241098,22.6913143 13.0194024,23.7147429 11.7802073,23.7147429 C10.5410122,23.7147429 9.53630488,22.6913143 9.53630488,21.4290286 L9.53630488,21.4290286 Z" id="Stroke-1045"></path>
                    <path d="M18.5121951,16.8576 C18.5121951,15.5953143 19.5169024,14.5718857 20.7560976,14.5718857 C21.9952927,14.5718857 23,15.5953143 23,16.8576 C23,18.1198857 21.9952927,19.1433143 20.7560976,19.1433143 C19.5169024,19.1433143 18.5121951,18.1198857 18.5121951,16.8576 L18.5121951,16.8576 Z" id="Stroke-1045"></path>
                    <path d="M3.64634146,12.2140067 L7.99390244,4.49972098" id="Stroke-1107"></path>
                    <path d="M20.9,14.499721 L20.9,9.35686383" id="Stroke-1107"></path>
                    <path d="M4.13719512,16.2140066 L9.88719512,20.2140066" id="Stroke-1107"></path>
                    <path d="M11.6402438,19.0711495 L9.39634145,4.85686384" id="Stroke-1107"></path>
                    <path d="M19.0731708,15.2140067 L10.5884147,4.2140067" id="Stroke-1107"></path>
                    <path d="M13.2530488,19.2854352 L19.5640244,8.99972091" id="Stroke-1107"></path>
                    <path d="M14.0945122,20.642578 L18.722561,17.9997209" id="Stroke-1107"></path>
                    <path d="M4.69817072,13.7854353 L18.722561,7.99972097" id="Stroke-1107"></path>
                </g>
            </g>
            <g id="Rectangle-66">
                <use fill="#FC9A00" sketch:type="MSShapeGroup" xlink:href="#path-1"></use>
                <use fill-opacity="0.200000018" fill="#3D3D3D" xlink:href="#path-1"></use>
            </g>
        </g>
    </g>
</svg>